<mxfile host="app.diagrams.net" modified="2023-04-22T11:21:31.636Z" agent="Mozilla/5.0 (Windows NT 10.0; Win64; x64) AppleWebKit/537.36 (KHTML, like Gecko) Chrome/111.0.0.0 Safari/537.36 OPR/97.0.0.0" etag="Q1KgNhDU4Nyz5q3tD0hR" version="21.1.8" type="device">
  <diagram name="Страница 1" id="XXHGtrbiuVRXHROfWYFV">
    <mxGraphModel dx="3483" dy="1915" grid="1" gridSize="10" guides="1" tooltips="1" connect="1" arrows="1" fold="1" page="1" pageScale="1" pageWidth="827" pageHeight="1169" math="0" shadow="0">
      <root>
        <mxCell id="0" />
        <mxCell id="1" parent="0" />
        <mxCell id="4U6we0sHs__-msw2Mute-354" value="" style="group" vertex="1" connectable="0" parent="1">
          <mxGeometry x="124.5" y="60" width="335" height="840" as="geometry" />
        </mxCell>
        <mxCell id="4U6we0sHs__-msw2Mute-319" value="Начало" style="ellipse;whiteSpace=wrap;html=1;" vertex="1" parent="4U6we0sHs__-msw2Mute-354">
          <mxGeometry x="132.5" width="70" height="30" as="geometry" />
        </mxCell>
        <mxCell id="4U6we0sHs__-msw2Mute-320" value="Ввод Global:&lt;br&gt;MAX_SIZE_INPUT_ARRAY = 10,&lt;br&gt;MAX_SIZE_STRING = 3" style="rounded=0;whiteSpace=wrap;html=1;movable=1;resizable=1;rotatable=1;deletable=1;editable=1;locked=0;connectable=1;container=0;" vertex="1" parent="4U6we0sHs__-msw2Mute-354">
          <mxGeometry x="75" y="50" width="185" height="50" as="geometry" />
        </mxCell>
        <mxCell id="4U6we0sHs__-msw2Mute-335" style="edgeStyle=orthogonalEdgeStyle;rounded=0;orthogonalLoop=1;jettySize=auto;html=1;entryX=0.5;entryY=0;entryDx=0;entryDy=0;" edge="1" parent="4U6we0sHs__-msw2Mute-354" source="4U6we0sHs__-msw2Mute-319" target="4U6we0sHs__-msw2Mute-320">
          <mxGeometry relative="1" as="geometry" />
        </mxCell>
        <mxCell id="4U6we0sHs__-msw2Mute-321" value="Ввод:&lt;br&gt;inputArray[],&lt;br&gt;releaseArray[]&amp;nbsp;" style="rounded=0;whiteSpace=wrap;html=1;movable=1;resizable=1;rotatable=1;deletable=1;editable=1;locked=0;connectable=1;container=0;" vertex="1" parent="4U6we0sHs__-msw2Mute-354">
          <mxGeometry x="120" y="120" width="95" height="50" as="geometry" />
        </mxCell>
        <mxCell id="4U6we0sHs__-msw2Mute-337" style="edgeStyle=orthogonalEdgeStyle;rounded=0;orthogonalLoop=1;jettySize=auto;html=1;entryX=0.5;entryY=0;entryDx=0;entryDy=0;" edge="1" parent="4U6we0sHs__-msw2Mute-354" source="4U6we0sHs__-msw2Mute-320" target="4U6we0sHs__-msw2Mute-321">
          <mxGeometry relative="1" as="geometry" />
        </mxCell>
        <mxCell id="4U6we0sHs__-msw2Mute-322" value="Вывод:&lt;br&gt;&quot;Please enter array&lt;span style=&quot;background-color: initial;&quot;&gt;&quot;&lt;/span&gt;" style="rounded=0;whiteSpace=wrap;html=1;" vertex="1" parent="4U6we0sHs__-msw2Mute-354">
          <mxGeometry x="72.5" y="190" width="190" height="38" as="geometry" />
        </mxCell>
        <mxCell id="4U6we0sHs__-msw2Mute-338" style="edgeStyle=orthogonalEdgeStyle;rounded=0;orthogonalLoop=1;jettySize=auto;html=1;entryX=0.5;entryY=0;entryDx=0;entryDy=0;" edge="1" parent="4U6we0sHs__-msw2Mute-354" source="4U6we0sHs__-msw2Mute-321" target="4U6we0sHs__-msw2Mute-322">
          <mxGeometry relative="1" as="geometry" />
        </mxCell>
        <mxCell id="4U6we0sHs__-msw2Mute-323" value="inputArray[] = SingleLineInput(MAX_SIZE_INPUT_ARRAY)&lt;br&gt;PrintArrayString(inputArray)" style="rounded=0;whiteSpace=wrap;html=1;" vertex="1" parent="4U6we0sHs__-msw2Mute-354">
          <mxGeometry x="37.5" y="250" width="260" height="60" as="geometry" />
        </mxCell>
        <mxCell id="4U6we0sHs__-msw2Mute-339" style="edgeStyle=orthogonalEdgeStyle;rounded=0;orthogonalLoop=1;jettySize=auto;html=1;entryX=0.5;entryY=-0.033;entryDx=0;entryDy=0;entryPerimeter=0;" edge="1" parent="4U6we0sHs__-msw2Mute-354" source="4U6we0sHs__-msw2Mute-322" target="4U6we0sHs__-msw2Mute-323">
          <mxGeometry relative="1" as="geometry" />
        </mxCell>
        <mxCell id="4U6we0sHs__-msw2Mute-324" value="Вывод:&lt;br&gt;&quot;Way 1&lt;span style=&quot;background-color: initial;&quot;&gt;&quot;&lt;/span&gt;" style="rounded=0;whiteSpace=wrap;html=1;" vertex="1" parent="4U6we0sHs__-msw2Mute-354">
          <mxGeometry x="72.5" y="330" width="190" height="38" as="geometry" />
        </mxCell>
        <mxCell id="4U6we0sHs__-msw2Mute-342" style="edgeStyle=orthogonalEdgeStyle;rounded=0;orthogonalLoop=1;jettySize=auto;html=1;entryX=0.5;entryY=0;entryDx=0;entryDy=0;" edge="1" parent="4U6we0sHs__-msw2Mute-354" source="4U6we0sHs__-msw2Mute-323" target="4U6we0sHs__-msw2Mute-324">
          <mxGeometry relative="1" as="geometry" />
        </mxCell>
        <mxCell id="4U6we0sHs__-msw2Mute-325" value="releaseArray[]&amp;nbsp; = ReleaseArray1(inputArray)&lt;br&gt;PrintArrayString(releaseArray)" style="rounded=0;whiteSpace=wrap;html=1;" vertex="1" parent="4U6we0sHs__-msw2Mute-354">
          <mxGeometry x="37.5" y="390" width="260" height="38" as="geometry" />
        </mxCell>
        <mxCell id="4U6we0sHs__-msw2Mute-343" style="edgeStyle=orthogonalEdgeStyle;rounded=0;orthogonalLoop=1;jettySize=auto;html=1;entryX=0.499;entryY=-0.053;entryDx=0;entryDy=0;entryPerimeter=0;" edge="1" parent="4U6we0sHs__-msw2Mute-354" source="4U6we0sHs__-msw2Mute-324" target="4U6we0sHs__-msw2Mute-325">
          <mxGeometry relative="1" as="geometry" />
        </mxCell>
        <mxCell id="4U6we0sHs__-msw2Mute-326" value="Вывод:&lt;br&gt;&quot;Way 2&lt;span style=&quot;background-color: initial;&quot;&gt;&quot;&lt;/span&gt;" style="rounded=0;whiteSpace=wrap;html=1;" vertex="1" parent="4U6we0sHs__-msw2Mute-354">
          <mxGeometry x="72.5" y="450" width="190" height="38" as="geometry" />
        </mxCell>
        <mxCell id="4U6we0sHs__-msw2Mute-345" style="edgeStyle=orthogonalEdgeStyle;rounded=0;orthogonalLoop=1;jettySize=auto;html=1;entryX=0.5;entryY=0;entryDx=0;entryDy=0;" edge="1" parent="4U6we0sHs__-msw2Mute-354" source="4U6we0sHs__-msw2Mute-325" target="4U6we0sHs__-msw2Mute-326">
          <mxGeometry relative="1" as="geometry" />
        </mxCell>
        <mxCell id="4U6we0sHs__-msw2Mute-327" value="releaseArray[]&amp;nbsp; = ReleaseArray2(inputArray)&lt;br&gt;PrintArrayString(releaseArray)" style="rounded=0;whiteSpace=wrap;html=1;" vertex="1" parent="4U6we0sHs__-msw2Mute-354">
          <mxGeometry x="37.5" y="510" width="260" height="38" as="geometry" />
        </mxCell>
        <mxCell id="4U6we0sHs__-msw2Mute-347" style="edgeStyle=orthogonalEdgeStyle;rounded=0;orthogonalLoop=1;jettySize=auto;html=1;entryX=0.5;entryY=0;entryDx=0;entryDy=0;" edge="1" parent="4U6we0sHs__-msw2Mute-354" source="4U6we0sHs__-msw2Mute-326" target="4U6we0sHs__-msw2Mute-327">
          <mxGeometry relative="1" as="geometry" />
        </mxCell>
        <mxCell id="4U6we0sHs__-msw2Mute-328" value="Вывод:&lt;br&gt;&quot;Way 3&lt;span style=&quot;background-color: initial;&quot;&gt;&quot;&lt;/span&gt;" style="rounded=0;whiteSpace=wrap;html=1;" vertex="1" parent="4U6we0sHs__-msw2Mute-354">
          <mxGeometry x="72.5" y="570" width="190" height="38" as="geometry" />
        </mxCell>
        <mxCell id="4U6we0sHs__-msw2Mute-348" style="edgeStyle=orthogonalEdgeStyle;rounded=0;orthogonalLoop=1;jettySize=auto;html=1;entryX=0.5;entryY=0;entryDx=0;entryDy=0;" edge="1" parent="4U6we0sHs__-msw2Mute-354" source="4U6we0sHs__-msw2Mute-327" target="4U6we0sHs__-msw2Mute-328">
          <mxGeometry relative="1" as="geometry" />
        </mxCell>
        <mxCell id="4U6we0sHs__-msw2Mute-329" value="releaseArray[]&amp;nbsp; = ReleaseArray3(inputArray)&lt;br&gt;PrintArrayString(releaseArray)" style="rounded=0;whiteSpace=wrap;html=1;" vertex="1" parent="4U6we0sHs__-msw2Mute-354">
          <mxGeometry x="37.5" y="630" width="260" height="38" as="geometry" />
        </mxCell>
        <mxCell id="4U6we0sHs__-msw2Mute-349" style="edgeStyle=orthogonalEdgeStyle;rounded=0;orthogonalLoop=1;jettySize=auto;html=1;entryX=0.5;entryY=0;entryDx=0;entryDy=0;" edge="1" parent="4U6we0sHs__-msw2Mute-354" source="4U6we0sHs__-msw2Mute-328" target="4U6we0sHs__-msw2Mute-329">
          <mxGeometry relative="1" as="geometry" />
        </mxCell>
        <mxCell id="4U6we0sHs__-msw2Mute-330" value="Вывод:&lt;br&gt;&quot;Way 4&lt;span style=&quot;background-color: initial;&quot;&gt;&quot;&lt;/span&gt;" style="rounded=0;whiteSpace=wrap;html=1;" vertex="1" parent="4U6we0sHs__-msw2Mute-354">
          <mxGeometry x="72.5" y="689" width="190" height="38" as="geometry" />
        </mxCell>
        <mxCell id="4U6we0sHs__-msw2Mute-350" style="edgeStyle=orthogonalEdgeStyle;rounded=0;orthogonalLoop=1;jettySize=auto;html=1;entryX=0.5;entryY=0;entryDx=0;entryDy=0;" edge="1" parent="4U6we0sHs__-msw2Mute-354" source="4U6we0sHs__-msw2Mute-329" target="4U6we0sHs__-msw2Mute-330">
          <mxGeometry relative="1" as="geometry" />
        </mxCell>
        <mxCell id="4U6we0sHs__-msw2Mute-331" value="releaseArray[]&amp;nbsp; = ReleaseArray4(inputArray,inputArray.Length)&lt;br&gt;PrintArrayString(releaseArray)" style="rounded=0;whiteSpace=wrap;html=1;" vertex="1" parent="4U6we0sHs__-msw2Mute-354">
          <mxGeometry y="748" width="335" height="38" as="geometry" />
        </mxCell>
        <mxCell id="4U6we0sHs__-msw2Mute-351" style="edgeStyle=orthogonalEdgeStyle;rounded=0;orthogonalLoop=1;jettySize=auto;html=1;entryX=0.5;entryY=0;entryDx=0;entryDy=0;" edge="1" parent="4U6we0sHs__-msw2Mute-354" source="4U6we0sHs__-msw2Mute-330" target="4U6we0sHs__-msw2Mute-331">
          <mxGeometry relative="1" as="geometry" />
        </mxCell>
        <mxCell id="4U6we0sHs__-msw2Mute-332" value="Конец" style="ellipse;whiteSpace=wrap;html=1;" vertex="1" parent="4U6we0sHs__-msw2Mute-354">
          <mxGeometry x="132.5" y="810" width="70" height="30" as="geometry" />
        </mxCell>
        <mxCell id="4U6we0sHs__-msw2Mute-352" value="" style="edgeStyle=orthogonalEdgeStyle;rounded=0;orthogonalLoop=1;jettySize=auto;html=1;" edge="1" parent="4U6we0sHs__-msw2Mute-354" source="4U6we0sHs__-msw2Mute-331" target="4U6we0sHs__-msw2Mute-332">
          <mxGeometry relative="1" as="geometry" />
        </mxCell>
        <mxCell id="4U6we0sHs__-msw2Mute-68" value="" style="group;movable=1;resizable=1;rotatable=1;deletable=1;editable=1;locked=0;connectable=1;" vertex="1" connectable="0" parent="1">
          <mxGeometry x="1640" width="485" height="440" as="geometry" />
        </mxCell>
        <mxCell id="4U6we0sHs__-msw2Mute-45" value="" style="rounded=0;whiteSpace=wrap;html=1;dashed=1;" vertex="1" parent="4U6we0sHs__-msw2Mute-68">
          <mxGeometry width="485" height="440" as="geometry" />
        </mxCell>
        <mxCell id="4U6we0sHs__-msw2Mute-82" style="edgeStyle=orthogonalEdgeStyle;rounded=0;orthogonalLoop=1;jettySize=auto;html=1;entryX=0.5;entryY=0;entryDx=0;entryDy=0;" edge="1" parent="4U6we0sHs__-msw2Mute-68" source="4U6we0sHs__-msw2Mute-47" target="4U6we0sHs__-msw2Mute-50">
          <mxGeometry relative="1" as="geometry" />
        </mxCell>
        <mxCell id="4U6we0sHs__-msw2Mute-47" value="[] SingleLineInput(maxSizeArray)" style="ellipse;whiteSpace=wrap;html=1;" vertex="1" parent="4U6we0sHs__-msw2Mute-68">
          <mxGeometry x="12" y="10" width="255" height="50" as="geometry" />
        </mxCell>
        <mxCell id="4U6we0sHs__-msw2Mute-48" value="Конец" style="ellipse;whiteSpace=wrap;html=1;" vertex="1" parent="4U6we0sHs__-msw2Mute-68">
          <mxGeometry x="104.5" y="400" width="70" height="30" as="geometry" />
        </mxCell>
        <mxCell id="4U6we0sHs__-msw2Mute-84" style="edgeStyle=orthogonalEdgeStyle;rounded=0;orthogonalLoop=1;jettySize=auto;html=1;entryX=0.5;entryY=0;entryDx=0;entryDy=0;" edge="1" parent="4U6we0sHs__-msw2Mute-68" source="4U6we0sHs__-msw2Mute-50" target="4U6we0sHs__-msw2Mute-52">
          <mxGeometry relative="1" as="geometry" />
        </mxCell>
        <mxCell id="4U6we0sHs__-msw2Mute-50" value="Ввод:&lt;br&gt;array[]" style="rounded=0;whiteSpace=wrap;html=1;movable=1;resizable=1;rotatable=1;deletable=1;editable=1;locked=0;connectable=1;" vertex="1" parent="4U6we0sHs__-msw2Mute-68">
          <mxGeometry x="97" y="80" width="85" height="33" as="geometry" />
        </mxCell>
        <mxCell id="4U6we0sHs__-msw2Mute-52" value="Вывод:&lt;br&gt;&quot;Enter string array with a &quot;space&quot; &quot;" style="rounded=0;whiteSpace=wrap;html=1;" vertex="1" parent="4U6we0sHs__-msw2Mute-68">
          <mxGeometry x="44.5" y="131" width="190" height="38" as="geometry" />
        </mxCell>
        <mxCell id="4U6we0sHs__-msw2Mute-54" value="Считать ввод пользователя:&lt;br&gt;array = Console.ReadLine().Split(&quot; &quot;)" style="rounded=0;whiteSpace=wrap;html=1;" vertex="1" parent="4U6we0sHs__-msw2Mute-68">
          <mxGeometry x="39.5" y="192" width="200" height="40" as="geometry" />
        </mxCell>
        <mxCell id="4U6we0sHs__-msw2Mute-51" value="" style="edgeStyle=orthogonalEdgeStyle;rounded=0;orthogonalLoop=1;jettySize=auto;html=1;entryX=0.5;entryY=0;entryDx=0;entryDy=0;" edge="1" parent="4U6we0sHs__-msw2Mute-68" source="4U6we0sHs__-msw2Mute-52" target="4U6we0sHs__-msw2Mute-54">
          <mxGeometry relative="1" as="geometry">
            <mxPoint x="140.02857142857147" y="190" as="targetPoint" />
          </mxGeometry>
        </mxCell>
        <mxCell id="4U6we0sHs__-msw2Mute-57" value="array.Length &amp;gt; maxSizeArray" style="rhombus;whiteSpace=wrap;html=1;" vertex="1" parent="4U6we0sHs__-msw2Mute-68">
          <mxGeometry x="29.5" y="256" width="220" height="60" as="geometry" />
        </mxCell>
        <mxCell id="4U6we0sHs__-msw2Mute-53" style="edgeStyle=orthogonalEdgeStyle;rounded=0;orthogonalLoop=1;jettySize=auto;html=1;entryX=0.5;entryY=0;entryDx=0;entryDy=0;" edge="1" parent="4U6we0sHs__-msw2Mute-68" source="4U6we0sHs__-msw2Mute-54" target="4U6we0sHs__-msw2Mute-57">
          <mxGeometry relative="1" as="geometry" />
        </mxCell>
        <mxCell id="4U6we0sHs__-msw2Mute-58" style="edgeStyle=orthogonalEdgeStyle;rounded=0;orthogonalLoop=1;jettySize=auto;html=1;entryX=1;entryY=0.5;entryDx=0;entryDy=0;" edge="1" parent="4U6we0sHs__-msw2Mute-68" source="4U6we0sHs__-msw2Mute-59" target="4U6we0sHs__-msw2Mute-54">
          <mxGeometry relative="1" as="geometry">
            <Array as="points">
              <mxPoint x="375" y="212" />
            </Array>
          </mxGeometry>
        </mxCell>
        <mxCell id="4U6we0sHs__-msw2Mute-59" value="Вывод:&lt;br&gt;&quot;Wrong enter, please try again&quot;" style="rounded=0;whiteSpace=wrap;html=1;" vertex="1" parent="4U6we0sHs__-msw2Mute-68">
          <mxGeometry x="285" y="267" width="190" height="38" as="geometry" />
        </mxCell>
        <mxCell id="4U6we0sHs__-msw2Mute-55" value="" style="edgeStyle=orthogonalEdgeStyle;rounded=0;orthogonalLoop=1;jettySize=auto;html=1;" edge="1" parent="4U6we0sHs__-msw2Mute-68" source="4U6we0sHs__-msw2Mute-57" target="4U6we0sHs__-msw2Mute-59">
          <mxGeometry relative="1" as="geometry" />
        </mxCell>
        <mxCell id="4U6we0sHs__-msw2Mute-60" value="да" style="text;html=1;align=center;verticalAlign=middle;resizable=0;points=[];autosize=1;strokeColor=none;fillColor=none;" vertex="1" parent="4U6we0sHs__-msw2Mute-68">
          <mxGeometry x="245" y="256" width="40" height="30" as="geometry" />
        </mxCell>
        <mxCell id="4U6we0sHs__-msw2Mute-61" value="нет" style="text;html=1;align=center;verticalAlign=middle;resizable=0;points=[];autosize=1;strokeColor=none;fillColor=none;" vertex="1" parent="4U6we0sHs__-msw2Mute-68">
          <mxGeometry x="145" y="310" width="40" height="30" as="geometry" />
        </mxCell>
        <mxCell id="4U6we0sHs__-msw2Mute-62" value="" style="edgeStyle=orthogonalEdgeStyle;rounded=0;orthogonalLoop=1;jettySize=auto;html=1;" edge="1" parent="4U6we0sHs__-msw2Mute-68" source="4U6we0sHs__-msw2Mute-63" target="4U6we0sHs__-msw2Mute-48">
          <mxGeometry relative="1" as="geometry" />
        </mxCell>
        <mxCell id="4U6we0sHs__-msw2Mute-63" value="Возврат: array[]" style="shape=document;whiteSpace=wrap;html=1;boundedLbl=1;" vertex="1" parent="4U6we0sHs__-msw2Mute-68">
          <mxGeometry x="79.5" y="340" width="120" height="40" as="geometry" />
        </mxCell>
        <mxCell id="4U6we0sHs__-msw2Mute-56" value="" style="edgeStyle=orthogonalEdgeStyle;rounded=0;orthogonalLoop=1;jettySize=auto;html=1;" edge="1" parent="4U6we0sHs__-msw2Mute-68" source="4U6we0sHs__-msw2Mute-57" target="4U6we0sHs__-msw2Mute-63">
          <mxGeometry relative="1" as="geometry" />
        </mxCell>
        <mxCell id="4U6we0sHs__-msw2Mute-69" value="" style="group;movable=1;resizable=1;rotatable=1;deletable=1;editable=1;locked=0;connectable=1;" vertex="1" connectable="0" parent="1">
          <mxGeometry x="1760" y="484" width="180" height="200" as="geometry" />
        </mxCell>
        <mxCell id="4U6we0sHs__-msw2Mute-7" value="" style="rounded=0;whiteSpace=wrap;html=1;dashed=1;" vertex="1" parent="4U6we0sHs__-msw2Mute-69">
          <mxGeometry width="180" height="200" as="geometry" />
        </mxCell>
        <mxCell id="4U6we0sHs__-msw2Mute-44" value="" style="edgeStyle=orthogonalEdgeStyle;rounded=0;orthogonalLoop=1;jettySize=auto;html=1;" edge="1" parent="4U6we0sHs__-msw2Mute-69">
          <mxGeometry relative="1" as="geometry">
            <mxPoint x="90" y="140" as="sourcePoint" />
            <mxPoint x="90" y="160" as="targetPoint" />
          </mxGeometry>
        </mxCell>
        <mxCell id="4U6we0sHs__-msw2Mute-2" value="PrintArrayString(array)" style="ellipse;whiteSpace=wrap;html=1;" vertex="1" parent="4U6we0sHs__-msw2Mute-69">
          <mxGeometry x="15" y="10" width="150" height="50" as="geometry" />
        </mxCell>
        <mxCell id="4U6we0sHs__-msw2Mute-4" value="" style="edgeStyle=orthogonalEdgeStyle;rounded=0;orthogonalLoop=1;jettySize=auto;html=1;" edge="1" parent="4U6we0sHs__-msw2Mute-69" source="4U6we0sHs__-msw2Mute-2" target="4U6we0sHs__-msw2Mute-3">
          <mxGeometry relative="1" as="geometry" />
        </mxCell>
        <mxCell id="4U6we0sHs__-msw2Mute-3" value="Вывод:&lt;br&gt;&amp;nbsp;System.Console.WriteLine&lt;br&gt;($&quot;[{string.Join(&quot;, &quot;, array)}]&quot;)" style="rounded=0;whiteSpace=wrap;html=1;" vertex="1" parent="4U6we0sHs__-msw2Mute-69">
          <mxGeometry x="10" y="80" width="160" height="60" as="geometry" />
        </mxCell>
        <mxCell id="4U6we0sHs__-msw2Mute-5" value="Конец" style="ellipse;whiteSpace=wrap;html=1;" vertex="1" parent="4U6we0sHs__-msw2Mute-69">
          <mxGeometry x="55" y="160" width="70" height="30" as="geometry" />
        </mxCell>
        <mxCell id="4U6we0sHs__-msw2Mute-117" value="" style="group" vertex="1" connectable="0" parent="1">
          <mxGeometry x="680.005" width="254" height="370" as="geometry" />
        </mxCell>
        <mxCell id="4U6we0sHs__-msw2Mute-71" value="" style="rounded=0;whiteSpace=wrap;html=1;dashed=1;container=0;" vertex="1" parent="4U6we0sHs__-msw2Mute-117">
          <mxGeometry width="254" height="370" as="geometry" />
        </mxCell>
        <mxCell id="4U6we0sHs__-msw2Mute-73" value="[] ReleaseArray1(array)" style="ellipse;whiteSpace=wrap;html=1;container=0;" vertex="1" parent="4U6we0sHs__-msw2Mute-117">
          <mxGeometry x="52" y="47" width="150" height="50" as="geometry" />
        </mxCell>
        <mxCell id="4U6we0sHs__-msw2Mute-76" value="Конец" style="ellipse;whiteSpace=wrap;html=1;container=0;" vertex="1" parent="4U6we0sHs__-msw2Mute-117">
          <mxGeometry x="92" y="327" width="70" height="30" as="geometry" />
        </mxCell>
        <mxCell id="4U6we0sHs__-msw2Mute-79" value="Ввод:&lt;br&gt;outputArray[]" style="rounded=0;whiteSpace=wrap;html=1;movable=1;resizable=1;rotatable=1;deletable=1;editable=1;locked=0;connectable=1;container=0;" vertex="1" parent="4U6we0sHs__-msw2Mute-117">
          <mxGeometry x="68.88" y="117" width="116.25" height="33" as="geometry" />
        </mxCell>
        <mxCell id="4U6we0sHs__-msw2Mute-86" value="" style="edgeStyle=orthogonalEdgeStyle;rounded=0;orthogonalLoop=1;jettySize=auto;html=1;" edge="1" parent="4U6we0sHs__-msw2Mute-117" source="4U6we0sHs__-msw2Mute-73" target="4U6we0sHs__-msw2Mute-79">
          <mxGeometry relative="1" as="geometry" />
        </mxCell>
        <mxCell id="4U6we0sHs__-msw2Mute-87" value="outputArray = array.Where&lt;br&gt;(x =&amp;gt; x.Length &amp;lt;= MAX_SIZE_STRING)&lt;br&gt;.ToArray()" style="rounded=0;whiteSpace=wrap;html=1;movable=1;resizable=1;rotatable=1;deletable=1;editable=1;locked=0;connectable=1;container=0;" vertex="1" parent="4U6we0sHs__-msw2Mute-117">
          <mxGeometry x="10.75" y="171" width="232.5" height="60" as="geometry" />
        </mxCell>
        <mxCell id="4U6we0sHs__-msw2Mute-88" value="" style="edgeStyle=orthogonalEdgeStyle;rounded=0;orthogonalLoop=1;jettySize=auto;html=1;" edge="1" parent="4U6we0sHs__-msw2Mute-117" source="4U6we0sHs__-msw2Mute-79" target="4U6we0sHs__-msw2Mute-87">
          <mxGeometry relative="1" as="geometry" />
        </mxCell>
        <mxCell id="4U6we0sHs__-msw2Mute-91" value="" style="edgeStyle=orthogonalEdgeStyle;rounded=0;orthogonalLoop=1;jettySize=auto;html=1;" edge="1" parent="4U6we0sHs__-msw2Mute-117" source="4U6we0sHs__-msw2Mute-89" target="4U6we0sHs__-msw2Mute-76">
          <mxGeometry relative="1" as="geometry" />
        </mxCell>
        <mxCell id="4U6we0sHs__-msw2Mute-89" value="Возврат: outputArray[]" style="shape=document;whiteSpace=wrap;html=1;boundedLbl=1;container=0;" vertex="1" parent="4U6we0sHs__-msw2Mute-117">
          <mxGeometry x="67" y="257" width="120" height="50" as="geometry" />
        </mxCell>
        <mxCell id="4U6we0sHs__-msw2Mute-90" value="" style="edgeStyle=orthogonalEdgeStyle;rounded=0;orthogonalLoop=1;jettySize=auto;html=1;" edge="1" parent="4U6we0sHs__-msw2Mute-117" source="4U6we0sHs__-msw2Mute-87" target="4U6we0sHs__-msw2Mute-89">
          <mxGeometry relative="1" as="geometry" />
        </mxCell>
        <mxCell id="4U6we0sHs__-msw2Mute-116" value="Global:&lt;br&gt;MAX_SIZE_STRING" style="text;html=1;strokeColor=none;fillColor=none;align=center;verticalAlign=middle;whiteSpace=wrap;rounded=0;container=0;" vertex="1" parent="4U6we0sHs__-msw2Mute-117">
          <mxGeometry x="161.995" y="10" width="60" height="30" as="geometry" />
        </mxCell>
        <mxCell id="4U6we0sHs__-msw2Mute-174" value="" style="group" vertex="1" connectable="0" parent="1">
          <mxGeometry x="1107" width="480" height="570" as="geometry" />
        </mxCell>
        <mxCell id="4U6we0sHs__-msw2Mute-94" value="" style="rounded=0;whiteSpace=wrap;html=1;dashed=1;" vertex="1" parent="4U6we0sHs__-msw2Mute-174">
          <mxGeometry width="480" height="570" as="geometry" />
        </mxCell>
        <mxCell id="4U6we0sHs__-msw2Mute-95" value="[] ReleaseArray2(array)" style="ellipse;whiteSpace=wrap;html=1;" vertex="1" parent="4U6we0sHs__-msw2Mute-174">
          <mxGeometry x="171.995" y="40" width="150" height="50" as="geometry" />
        </mxCell>
        <mxCell id="4U6we0sHs__-msw2Mute-96" value="Конец" style="ellipse;whiteSpace=wrap;html=1;" vertex="1" parent="4U6we0sHs__-msw2Mute-174">
          <mxGeometry x="211.995" y="530" width="70" height="30" as="geometry" />
        </mxCell>
        <mxCell id="4U6we0sHs__-msw2Mute-97" value="Ввод:&lt;br&gt;outputArray[array.Length]&lt;br&gt;outputIterator = 0" style="rounded=0;whiteSpace=wrap;html=1;movable=1;resizable=1;rotatable=1;deletable=1;editable=1;locked=0;connectable=1;" vertex="1" parent="4U6we0sHs__-msw2Mute-174">
          <mxGeometry x="171.43000000000006" y="105" width="151.13" height="60" as="geometry" />
        </mxCell>
        <mxCell id="4U6we0sHs__-msw2Mute-142" style="edgeStyle=orthogonalEdgeStyle;rounded=0;orthogonalLoop=1;jettySize=auto;html=1;entryX=0.5;entryY=0;entryDx=0;entryDy=0;" edge="1" parent="4U6we0sHs__-msw2Mute-174" source="4U6we0sHs__-msw2Mute-95" target="4U6we0sHs__-msw2Mute-97">
          <mxGeometry relative="1" as="geometry" />
        </mxCell>
        <mxCell id="4U6we0sHs__-msw2Mute-118" value="Global:&lt;br&gt;MAX_SIZE_STRING" style="text;html=1;strokeColor=none;fillColor=none;align=center;verticalAlign=middle;whiteSpace=wrap;rounded=0;container=0;" vertex="1" parent="4U6we0sHs__-msw2Mute-174">
          <mxGeometry x="366.1300000000001" y="13" width="60" height="30" as="geometry" />
        </mxCell>
        <mxCell id="4U6we0sHs__-msw2Mute-119" value="i = 0; i &amp;lt; array.Length; i++" style="shape=hexagon;perimeter=hexagonPerimeter2;whiteSpace=wrap;html=1;fixedSize=1;" vertex="1" parent="4U6we0sHs__-msw2Mute-174">
          <mxGeometry x="169.55999999999995" y="190" width="154.87" height="30" as="geometry" />
        </mxCell>
        <mxCell id="4U6we0sHs__-msw2Mute-143" style="edgeStyle=orthogonalEdgeStyle;rounded=0;orthogonalLoop=1;jettySize=auto;html=1;entryX=0.5;entryY=0;entryDx=0;entryDy=0;" edge="1" parent="4U6we0sHs__-msw2Mute-174" source="4U6we0sHs__-msw2Mute-97" target="4U6we0sHs__-msw2Mute-119">
          <mxGeometry relative="1" as="geometry" />
        </mxCell>
        <mxCell id="4U6we0sHs__-msw2Mute-132" style="edgeStyle=orthogonalEdgeStyle;rounded=0;orthogonalLoop=1;jettySize=auto;html=1;entryX=0;entryY=0.5;entryDx=0;entryDy=0;" edge="1" parent="4U6we0sHs__-msw2Mute-174" source="4U6we0sHs__-msw2Mute-120" target="4U6we0sHs__-msw2Mute-119">
          <mxGeometry relative="1" as="geometry">
            <Array as="points">
              <mxPoint x="30" y="290" />
              <mxPoint x="30" y="205" />
            </Array>
          </mxGeometry>
        </mxCell>
        <mxCell id="4U6we0sHs__-msw2Mute-120" value="array[i].Length &lt;br&gt;&amp;lt;= &lt;br&gt;MAX_SIZE_STRING" style="rhombus;whiteSpace=wrap;html=1;" vertex="1" parent="4U6we0sHs__-msw2Mute-174">
          <mxGeometry x="49" y="240" width="195" height="100" as="geometry" />
        </mxCell>
        <mxCell id="4U6we0sHs__-msw2Mute-135" style="edgeStyle=orthogonalEdgeStyle;rounded=0;orthogonalLoop=1;jettySize=auto;html=1;entryX=1;entryY=0.5;entryDx=0;entryDy=0;" edge="1" parent="4U6we0sHs__-msw2Mute-174" source="4U6we0sHs__-msw2Mute-119" target="4U6we0sHs__-msw2Mute-120">
          <mxGeometry relative="1" as="geometry">
            <Array as="points">
              <mxPoint x="265" y="290" />
            </Array>
          </mxGeometry>
        </mxCell>
        <mxCell id="4U6we0sHs__-msw2Mute-130" style="edgeStyle=orthogonalEdgeStyle;rounded=0;orthogonalLoop=1;jettySize=auto;html=1;exitX=0;exitY=0.5;exitDx=0;exitDy=0;entryX=0;entryY=0.5;entryDx=0;entryDy=0;" edge="1" parent="4U6we0sHs__-msw2Mute-174" source="4U6we0sHs__-msw2Mute-121" target="4U6we0sHs__-msw2Mute-119">
          <mxGeometry relative="1" as="geometry">
            <Array as="points">
              <mxPoint x="44" y="385" />
              <mxPoint x="10" y="385" />
              <mxPoint x="10" y="205" />
            </Array>
          </mxGeometry>
        </mxCell>
        <mxCell id="4U6we0sHs__-msw2Mute-121" value="outputArray[outputIterator] = array[i]&lt;br&gt;outputIterator++" style="rounded=0;whiteSpace=wrap;html=1;" vertex="1" parent="4U6we0sHs__-msw2Mute-174">
          <mxGeometry x="43.25" y="370" width="206.5" height="50" as="geometry" />
        </mxCell>
        <mxCell id="4U6we0sHs__-msw2Mute-124" value="" style="edgeStyle=orthogonalEdgeStyle;rounded=0;orthogonalLoop=1;jettySize=auto;html=1;" edge="1" parent="4U6we0sHs__-msw2Mute-174" source="4U6we0sHs__-msw2Mute-120" target="4U6we0sHs__-msw2Mute-121">
          <mxGeometry relative="1" as="geometry" />
        </mxCell>
        <mxCell id="4U6we0sHs__-msw2Mute-123" value="Array.Resize&lt;br&gt;(outputArray, outputIterator)" style="rounded=0;whiteSpace=wrap;html=1;" vertex="1" parent="4U6we0sHs__-msw2Mute-174">
          <mxGeometry x="305.125" y="370" width="160" height="50" as="geometry" />
        </mxCell>
        <mxCell id="4U6we0sHs__-msw2Mute-127" style="edgeStyle=orthogonalEdgeStyle;rounded=0;orthogonalLoop=1;jettySize=auto;html=1;entryX=0.5;entryY=0;entryDx=0;entryDy=0;" edge="1" parent="4U6we0sHs__-msw2Mute-174" source="4U6we0sHs__-msw2Mute-119" target="4U6we0sHs__-msw2Mute-123">
          <mxGeometry relative="1" as="geometry">
            <Array as="points">
              <mxPoint x="385" y="205" />
            </Array>
          </mxGeometry>
        </mxCell>
        <mxCell id="4U6we0sHs__-msw2Mute-128" value="нет" style="text;html=1;align=center;verticalAlign=middle;resizable=0;points=[];autosize=1;strokeColor=none;fillColor=none;" vertex="1" parent="4U6we0sHs__-msw2Mute-174">
          <mxGeometry x="384" y="268" width="40" height="30" as="geometry" />
        </mxCell>
        <mxCell id="4U6we0sHs__-msw2Mute-129" value="да" style="text;html=1;align=center;verticalAlign=middle;resizable=0;points=[];autosize=1;strokeColor=none;fillColor=none;" vertex="1" parent="4U6we0sHs__-msw2Mute-174">
          <mxGeometry x="150" y="340" width="40" height="30" as="geometry" />
        </mxCell>
        <mxCell id="4U6we0sHs__-msw2Mute-134" value="нет" style="text;html=1;align=center;verticalAlign=middle;resizable=0;points=[];autosize=1;strokeColor=none;fillColor=none;" vertex="1" parent="4U6we0sHs__-msw2Mute-174">
          <mxGeometry x="30" y="230" width="40" height="30" as="geometry" />
        </mxCell>
        <mxCell id="4U6we0sHs__-msw2Mute-136" value="да" style="text;html=1;align=center;verticalAlign=middle;resizable=0;points=[];autosize=1;strokeColor=none;fillColor=none;" vertex="1" parent="4U6we0sHs__-msw2Mute-174">
          <mxGeometry x="265" y="238" width="40" height="30" as="geometry" />
        </mxCell>
        <mxCell id="4U6we0sHs__-msw2Mute-140" value="" style="edgeStyle=orthogonalEdgeStyle;rounded=0;orthogonalLoop=1;jettySize=auto;html=1;" edge="1" parent="4U6we0sHs__-msw2Mute-174" source="4U6we0sHs__-msw2Mute-137" target="4U6we0sHs__-msw2Mute-96">
          <mxGeometry relative="1" as="geometry" />
        </mxCell>
        <mxCell id="4U6we0sHs__-msw2Mute-137" value="Возврат: outputArray[]" style="shape=document;whiteSpace=wrap;html=1;boundedLbl=1;container=0;" vertex="1" parent="4U6we0sHs__-msw2Mute-174">
          <mxGeometry x="186.995" y="464" width="120" height="50" as="geometry" />
        </mxCell>
        <mxCell id="4U6we0sHs__-msw2Mute-139" style="edgeStyle=orthogonalEdgeStyle;rounded=0;orthogonalLoop=1;jettySize=auto;html=1;" edge="1" parent="4U6we0sHs__-msw2Mute-174" source="4U6we0sHs__-msw2Mute-123" target="4U6we0sHs__-msw2Mute-137">
          <mxGeometry relative="1" as="geometry" />
        </mxCell>
        <mxCell id="4U6we0sHs__-msw2Mute-192" value="" style="group" vertex="1" connectable="0" parent="1">
          <mxGeometry x="680" y="430" width="380" height="890" as="geometry" />
        </mxCell>
        <mxCell id="4U6we0sHs__-msw2Mute-146" value="" style="rounded=0;whiteSpace=wrap;html=1;dashed=1;" vertex="1" parent="4U6we0sHs__-msw2Mute-192">
          <mxGeometry width="380" height="890" as="geometry" />
        </mxCell>
        <mxCell id="4U6we0sHs__-msw2Mute-147" value="[] ReleaseArray3(array)" style="ellipse;whiteSpace=wrap;html=1;" vertex="1" parent="4U6we0sHs__-msw2Mute-192">
          <mxGeometry x="171.995" y="40" width="150" height="50" as="geometry" />
        </mxCell>
        <mxCell id="4U6we0sHs__-msw2Mute-148" value="Конец" style="ellipse;whiteSpace=wrap;html=1;" vertex="1" parent="4U6we0sHs__-msw2Mute-192">
          <mxGeometry x="211.995" y="838" width="70" height="30" as="geometry" />
        </mxCell>
        <mxCell id="4U6we0sHs__-msw2Mute-149" value="Ввод:&lt;br&gt;outputIterator = 0" style="rounded=0;whiteSpace=wrap;html=1;movable=1;resizable=1;rotatable=1;deletable=1;editable=1;locked=0;connectable=1;" vertex="1" parent="4U6we0sHs__-msw2Mute-192">
          <mxGeometry x="171.43" y="110" width="151.13" height="35" as="geometry" />
        </mxCell>
        <mxCell id="4U6we0sHs__-msw2Mute-150" style="edgeStyle=orthogonalEdgeStyle;rounded=0;orthogonalLoop=1;jettySize=auto;html=1;entryX=0.5;entryY=0;entryDx=0;entryDy=0;" edge="1" parent="4U6we0sHs__-msw2Mute-192" source="4U6we0sHs__-msw2Mute-147" target="4U6we0sHs__-msw2Mute-149">
          <mxGeometry relative="1" as="geometry" />
        </mxCell>
        <mxCell id="4U6we0sHs__-msw2Mute-151" value="Global:&lt;br&gt;MAX_SIZE_STRING" style="text;html=1;strokeColor=none;fillColor=none;align=center;verticalAlign=middle;whiteSpace=wrap;rounded=0;container=0;" vertex="1" parent="4U6we0sHs__-msw2Mute-192">
          <mxGeometry x="280" y="5" width="60" height="30" as="geometry" />
        </mxCell>
        <mxCell id="4U6we0sHs__-msw2Mute-152" value="i = 0; i &amp;lt; array.Length; i++" style="shape=hexagon;perimeter=hexagonPerimeter2;whiteSpace=wrap;html=1;fixedSize=1;" vertex="1" parent="4U6we0sHs__-msw2Mute-192">
          <mxGeometry x="169.56" y="172" width="154.87" height="30" as="geometry" />
        </mxCell>
        <mxCell id="4U6we0sHs__-msw2Mute-153" style="edgeStyle=orthogonalEdgeStyle;rounded=0;orthogonalLoop=1;jettySize=auto;html=1;entryX=0.5;entryY=0;entryDx=0;entryDy=0;" edge="1" parent="4U6we0sHs__-msw2Mute-192" source="4U6we0sHs__-msw2Mute-149" target="4U6we0sHs__-msw2Mute-152">
          <mxGeometry relative="1" as="geometry" />
        </mxCell>
        <mxCell id="4U6we0sHs__-msw2Mute-154" style="edgeStyle=orthogonalEdgeStyle;rounded=0;orthogonalLoop=1;jettySize=auto;html=1;entryX=0;entryY=0.5;entryDx=0;entryDy=0;" edge="1" parent="4U6we0sHs__-msw2Mute-192" source="4U6we0sHs__-msw2Mute-155" target="4U6we0sHs__-msw2Mute-152">
          <mxGeometry relative="1" as="geometry">
            <Array as="points">
              <mxPoint x="30" y="272" />
              <mxPoint x="30" y="187" />
            </Array>
          </mxGeometry>
        </mxCell>
        <mxCell id="4U6we0sHs__-msw2Mute-155" value="array[i].Length &lt;br&gt;&amp;lt;= &lt;br&gt;MAX_SIZE_STRING" style="rhombus;whiteSpace=wrap;html=1;" vertex="1" parent="4U6we0sHs__-msw2Mute-192">
          <mxGeometry x="50" y="222" width="195" height="100" as="geometry" />
        </mxCell>
        <mxCell id="4U6we0sHs__-msw2Mute-156" style="edgeStyle=orthogonalEdgeStyle;rounded=0;orthogonalLoop=1;jettySize=auto;html=1;entryX=1;entryY=0.5;entryDx=0;entryDy=0;" edge="1" parent="4U6we0sHs__-msw2Mute-192" source="4U6we0sHs__-msw2Mute-152" target="4U6we0sHs__-msw2Mute-155">
          <mxGeometry relative="1" as="geometry">
            <Array as="points">
              <mxPoint x="265" y="272" />
            </Array>
          </mxGeometry>
        </mxCell>
        <mxCell id="4U6we0sHs__-msw2Mute-157" style="edgeStyle=orthogonalEdgeStyle;rounded=0;orthogonalLoop=1;jettySize=auto;html=1;exitX=0;exitY=0.5;exitDx=0;exitDy=0;entryX=0;entryY=0.5;entryDx=0;entryDy=0;" edge="1" parent="4U6we0sHs__-msw2Mute-192" source="4U6we0sHs__-msw2Mute-158" target="4U6we0sHs__-msw2Mute-152">
          <mxGeometry relative="1" as="geometry">
            <Array as="points">
              <mxPoint x="10" y="366" />
              <mxPoint x="10" y="187" />
            </Array>
          </mxGeometry>
        </mxCell>
        <mxCell id="4U6we0sHs__-msw2Mute-158" value="outputIterator++" style="rounded=0;whiteSpace=wrap;html=1;" vertex="1" parent="4U6we0sHs__-msw2Mute-192">
          <mxGeometry x="89.62" y="352" width="115.75" height="28" as="geometry" />
        </mxCell>
        <mxCell id="4U6we0sHs__-msw2Mute-159" value="" style="edgeStyle=orthogonalEdgeStyle;rounded=0;orthogonalLoop=1;jettySize=auto;html=1;" edge="1" parent="4U6we0sHs__-msw2Mute-192" source="4U6we0sHs__-msw2Mute-155" target="4U6we0sHs__-msw2Mute-158">
          <mxGeometry relative="1" as="geometry" />
        </mxCell>
        <mxCell id="4U6we0sHs__-msw2Mute-161" style="edgeStyle=orthogonalEdgeStyle;rounded=0;orthogonalLoop=1;jettySize=auto;html=1;entryX=0.5;entryY=0;entryDx=0;entryDy=0;" edge="1" parent="4U6we0sHs__-msw2Mute-192" source="4U6we0sHs__-msw2Mute-152" target="4U6we0sHs__-msw2Mute-169">
          <mxGeometry relative="1" as="geometry">
            <Array as="points">
              <mxPoint x="340" y="187" />
              <mxPoint x="340" y="370" />
              <mxPoint x="247" y="370" />
            </Array>
            <mxPoint x="385.125" y="352" as="targetPoint" />
          </mxGeometry>
        </mxCell>
        <mxCell id="4U6we0sHs__-msw2Mute-162" value="нет" style="text;html=1;align=center;verticalAlign=middle;resizable=0;points=[];autosize=1;strokeColor=none;fillColor=none;" vertex="1" parent="4U6we0sHs__-msw2Mute-192">
          <mxGeometry x="340" y="257" width="40" height="30" as="geometry" />
        </mxCell>
        <mxCell id="4U6we0sHs__-msw2Mute-163" value="да" style="text;html=1;align=center;verticalAlign=middle;resizable=0;points=[];autosize=1;strokeColor=none;fillColor=none;" vertex="1" parent="4U6we0sHs__-msw2Mute-192">
          <mxGeometry x="150" y="322" width="40" height="30" as="geometry" />
        </mxCell>
        <mxCell id="4U6we0sHs__-msw2Mute-164" value="нет" style="text;html=1;align=center;verticalAlign=middle;resizable=0;points=[];autosize=1;strokeColor=none;fillColor=none;" vertex="1" parent="4U6we0sHs__-msw2Mute-192">
          <mxGeometry x="30" y="212" width="40" height="30" as="geometry" />
        </mxCell>
        <mxCell id="4U6we0sHs__-msw2Mute-165" value="да" style="text;html=1;align=center;verticalAlign=middle;resizable=0;points=[];autosize=1;strokeColor=none;fillColor=none;" vertex="1" parent="4U6we0sHs__-msw2Mute-192">
          <mxGeometry x="265" y="220" width="40" height="30" as="geometry" />
        </mxCell>
        <mxCell id="4U6we0sHs__-msw2Mute-166" value="" style="edgeStyle=orthogonalEdgeStyle;rounded=0;orthogonalLoop=1;jettySize=auto;html=1;" edge="1" parent="4U6we0sHs__-msw2Mute-192" source="4U6we0sHs__-msw2Mute-167" target="4U6we0sHs__-msw2Mute-148">
          <mxGeometry relative="1" as="geometry" />
        </mxCell>
        <mxCell id="4U6we0sHs__-msw2Mute-167" value="Возврат: outputArray[]" style="shape=document;whiteSpace=wrap;html=1;boundedLbl=1;container=0;" vertex="1" parent="4U6we0sHs__-msw2Mute-192">
          <mxGeometry x="186.995" y="772" width="120" height="50" as="geometry" />
        </mxCell>
        <mxCell id="4U6we0sHs__-msw2Mute-169" value="Ввод:&lt;br&gt;outputArray[outputIterator]" style="rounded=0;whiteSpace=wrap;html=1;movable=1;resizable=1;rotatable=1;deletable=1;editable=1;locked=0;connectable=1;" vertex="1" parent="4U6we0sHs__-msw2Mute-192">
          <mxGeometry x="172" y="394" width="150" height="40" as="geometry" />
        </mxCell>
        <mxCell id="4U6we0sHs__-msw2Mute-172" value="array[i].Length &lt;br&gt;&amp;lt;= &lt;br&gt;MAX_SIZE_STRING" style="rhombus;whiteSpace=wrap;html=1;" vertex="1" parent="4U6we0sHs__-msw2Mute-192">
          <mxGeometry x="50" y="552" width="195" height="100" as="geometry" />
        </mxCell>
        <mxCell id="4U6we0sHs__-msw2Mute-173" value="outputArray[outputIterator] = array[i]&lt;br&gt;outputIterator++" style="rounded=0;whiteSpace=wrap;html=1;" vertex="1" parent="4U6we0sHs__-msw2Mute-192">
          <mxGeometry x="44.25" y="682" width="206.5" height="50" as="geometry" />
        </mxCell>
        <mxCell id="4U6we0sHs__-msw2Mute-182" value="" style="edgeStyle=orthogonalEdgeStyle;rounded=0;orthogonalLoop=1;jettySize=auto;html=1;" edge="1" parent="4U6we0sHs__-msw2Mute-192" source="4U6we0sHs__-msw2Mute-172" target="4U6we0sHs__-msw2Mute-173">
          <mxGeometry relative="1" as="geometry" />
        </mxCell>
        <mxCell id="4U6we0sHs__-msw2Mute-175" value="outputIterator = 0" style="rounded=0;whiteSpace=wrap;html=1;movable=1;resizable=1;rotatable=1;deletable=1;editable=1;locked=0;connectable=1;" vertex="1" parent="4U6we0sHs__-msw2Mute-192">
          <mxGeometry x="193.28" y="454" width="107.44" height="20" as="geometry" />
        </mxCell>
        <mxCell id="4U6we0sHs__-msw2Mute-177" style="edgeStyle=orthogonalEdgeStyle;rounded=0;orthogonalLoop=1;jettySize=auto;html=1;entryX=0.5;entryY=0;entryDx=0;entryDy=0;" edge="1" parent="4U6we0sHs__-msw2Mute-192" source="4U6we0sHs__-msw2Mute-169" target="4U6we0sHs__-msw2Mute-175">
          <mxGeometry relative="1" as="geometry" />
        </mxCell>
        <mxCell id="4U6we0sHs__-msw2Mute-180" style="edgeStyle=orthogonalEdgeStyle;rounded=0;orthogonalLoop=1;jettySize=auto;html=1;entryX=0.5;entryY=0;entryDx=0;entryDy=0;" edge="1" parent="4U6we0sHs__-msw2Mute-192" source="4U6we0sHs__-msw2Mute-178" target="4U6we0sHs__-msw2Mute-167">
          <mxGeometry relative="1" as="geometry">
            <Array as="points">
              <mxPoint x="340" y="514" />
              <mxPoint x="340" y="750" />
              <mxPoint x="247" y="750" />
            </Array>
          </mxGeometry>
        </mxCell>
        <mxCell id="4U6we0sHs__-msw2Mute-188" style="edgeStyle=orthogonalEdgeStyle;rounded=0;orthogonalLoop=1;jettySize=auto;html=1;entryX=1;entryY=0.5;entryDx=0;entryDy=0;" edge="1" parent="4U6we0sHs__-msw2Mute-192" source="4U6we0sHs__-msw2Mute-178" target="4U6we0sHs__-msw2Mute-172">
          <mxGeometry relative="1" as="geometry">
            <Array as="points">
              <mxPoint x="265" y="602" />
            </Array>
          </mxGeometry>
        </mxCell>
        <mxCell id="4U6we0sHs__-msw2Mute-178" value="i = 0; i &amp;lt; array.Length; i++" style="shape=hexagon;perimeter=hexagonPerimeter2;whiteSpace=wrap;html=1;fixedSize=1;" vertex="1" parent="4U6we0sHs__-msw2Mute-192">
          <mxGeometry x="169.56" y="499" width="154.87" height="30" as="geometry" />
        </mxCell>
        <mxCell id="4U6we0sHs__-msw2Mute-185" style="edgeStyle=orthogonalEdgeStyle;rounded=0;orthogonalLoop=1;jettySize=auto;html=1;entryX=0;entryY=0.5;entryDx=0;entryDy=0;" edge="1" parent="4U6we0sHs__-msw2Mute-192" source="4U6we0sHs__-msw2Mute-172" target="4U6we0sHs__-msw2Mute-178">
          <mxGeometry relative="1" as="geometry">
            <Array as="points">
              <mxPoint x="30" y="602" />
              <mxPoint x="30" y="514" />
            </Array>
          </mxGeometry>
        </mxCell>
        <mxCell id="4U6we0sHs__-msw2Mute-184" style="edgeStyle=orthogonalEdgeStyle;rounded=0;orthogonalLoop=1;jettySize=auto;html=1;entryX=0;entryY=0.5;entryDx=0;entryDy=0;" edge="1" parent="4U6we0sHs__-msw2Mute-192" source="4U6we0sHs__-msw2Mute-173" target="4U6we0sHs__-msw2Mute-178">
          <mxGeometry relative="1" as="geometry">
            <Array as="points">
              <mxPoint x="10" y="707" />
              <mxPoint x="10" y="514" />
            </Array>
          </mxGeometry>
        </mxCell>
        <mxCell id="4U6we0sHs__-msw2Mute-179" value="" style="edgeStyle=orthogonalEdgeStyle;rounded=0;orthogonalLoop=1;jettySize=auto;html=1;" edge="1" parent="4U6we0sHs__-msw2Mute-192" source="4U6we0sHs__-msw2Mute-175" target="4U6we0sHs__-msw2Mute-178">
          <mxGeometry relative="1" as="geometry" />
        </mxCell>
        <mxCell id="4U6we0sHs__-msw2Mute-181" value="нет" style="text;html=1;align=center;verticalAlign=middle;resizable=0;points=[];autosize=1;strokeColor=none;fillColor=none;" vertex="1" parent="4U6we0sHs__-msw2Mute-192">
          <mxGeometry x="340" y="620" width="40" height="30" as="geometry" />
        </mxCell>
        <mxCell id="4U6we0sHs__-msw2Mute-186" value="нет" style="text;html=1;align=center;verticalAlign=middle;resizable=0;points=[];autosize=1;strokeColor=none;fillColor=none;" vertex="1" parent="4U6we0sHs__-msw2Mute-192">
          <mxGeometry x="30" y="540" width="40" height="30" as="geometry" />
        </mxCell>
        <mxCell id="4U6we0sHs__-msw2Mute-187" value="да" style="text;html=1;align=center;verticalAlign=middle;resizable=0;points=[];autosize=1;strokeColor=none;fillColor=none;" vertex="1" parent="4U6we0sHs__-msw2Mute-192">
          <mxGeometry x="146.99" y="652" width="40" height="30" as="geometry" />
        </mxCell>
        <mxCell id="4U6we0sHs__-msw2Mute-189" value="да" style="text;html=1;align=center;verticalAlign=middle;resizable=0;points=[];autosize=1;strokeColor=none;fillColor=none;" vertex="1" parent="4U6we0sHs__-msw2Mute-192">
          <mxGeometry x="265" y="552" width="40" height="30" as="geometry" />
        </mxCell>
        <mxCell id="4U6we0sHs__-msw2Mute-293" value="" style="whiteSpace=wrap;html=1;dashed=1;" vertex="1" parent="1">
          <mxGeometry x="1107" y="610" width="600" height="810" as="geometry" />
        </mxCell>
        <mxCell id="4U6we0sHs__-msw2Mute-195" value="[] ReleaseArray4(array[], length)" style="ellipse;whiteSpace=wrap;html=1;container=0;" vertex="1" parent="1">
          <mxGeometry x="1497" y="620" width="190" height="50" as="geometry" />
        </mxCell>
        <mxCell id="4U6we0sHs__-msw2Mute-204" value="Global:&lt;br&gt;MAX_SIZE_STRING" style="text;html=1;strokeColor=none;fillColor=none;align=center;verticalAlign=middle;whiteSpace=wrap;rounded=0;container=0;" vertex="1" parent="1">
          <mxGeometry x="1387.5" y="620" width="60" height="30" as="geometry" />
        </mxCell>
        <mxCell id="4U6we0sHs__-msw2Mute-205" value="length == 1" style="rhombus;whiteSpace=wrap;html=1;" vertex="1" parent="1">
          <mxGeometry x="1542" y="710" width="100" height="70" as="geometry" />
        </mxCell>
        <mxCell id="4U6we0sHs__-msw2Mute-228" value="" style="edgeStyle=orthogonalEdgeStyle;rounded=0;orthogonalLoop=1;jettySize=auto;html=1;" edge="1" parent="1" source="4U6we0sHs__-msw2Mute-195" target="4U6we0sHs__-msw2Mute-205">
          <mxGeometry relative="1" as="geometry" />
        </mxCell>
        <mxCell id="4U6we0sHs__-msw2Mute-206" value="array[i].Length &lt;br&gt;&amp;lt;= &lt;br&gt;MAX_SIZE_STRING" style="rhombus;whiteSpace=wrap;html=1;" vertex="1" parent="1">
          <mxGeometry x="1290" y="695" width="195" height="100" as="geometry" />
        </mxCell>
        <mxCell id="4U6we0sHs__-msw2Mute-217" value="" style="edgeStyle=orthogonalEdgeStyle;rounded=0;orthogonalLoop=1;jettySize=auto;html=1;" edge="1" parent="1" source="4U6we0sHs__-msw2Mute-205" target="4U6we0sHs__-msw2Mute-206">
          <mxGeometry relative="1" as="geometry" />
        </mxCell>
        <mxCell id="4U6we0sHs__-msw2Mute-208" value="Ввод:&lt;br&gt;tempArray[]" style="rounded=0;whiteSpace=wrap;html=1;movable=1;resizable=1;rotatable=1;deletable=1;editable=1;locked=0;connectable=1;" vertex="1" parent="1">
          <mxGeometry x="1517" y="830" width="150" height="40" as="geometry" />
        </mxCell>
        <mxCell id="4U6we0sHs__-msw2Mute-230" value="" style="edgeStyle=orthogonalEdgeStyle;rounded=0;orthogonalLoop=1;jettySize=auto;html=1;" edge="1" parent="1" source="4U6we0sHs__-msw2Mute-205" target="4U6we0sHs__-msw2Mute-208">
          <mxGeometry relative="1" as="geometry" />
        </mxCell>
        <mxCell id="4U6we0sHs__-msw2Mute-355" style="edgeStyle=orthogonalEdgeStyle;rounded=0;orthogonalLoop=1;jettySize=auto;html=1;entryX=0.5;entryY=0;entryDx=0;entryDy=0;" edge="1" parent="1" source="4U6we0sHs__-msw2Mute-215" target="4U6we0sHs__-msw2Mute-298">
          <mxGeometry relative="1" as="geometry" />
        </mxCell>
        <mxCell id="4U6we0sHs__-msw2Mute-215" value="Возврат:&lt;br&gt;newArray[]" style="shape=document;whiteSpace=wrap;html=1;boundedLbl=1;" vertex="1" parent="1">
          <mxGeometry x="1177" y="934" width="120" height="56" as="geometry" />
        </mxCell>
        <mxCell id="4U6we0sHs__-msw2Mute-216" value="Ввод:&lt;br&gt;newArray[1]" style="rounded=0;whiteSpace=wrap;html=1;movable=1;resizable=1;rotatable=1;deletable=1;editable=1;locked=0;connectable=1;" vertex="1" parent="1">
          <mxGeometry x="1192" y="816" width="90" height="40" as="geometry" />
        </mxCell>
        <mxCell id="4U6we0sHs__-msw2Mute-224" style="edgeStyle=orthogonalEdgeStyle;rounded=0;orthogonalLoop=1;jettySize=auto;html=1;entryX=0.5;entryY=0;entryDx=0;entryDy=0;" edge="1" parent="1" source="4U6we0sHs__-msw2Mute-206" target="4U6we0sHs__-msw2Mute-216">
          <mxGeometry relative="1" as="geometry" />
        </mxCell>
        <mxCell id="4U6we0sHs__-msw2Mute-222" value="" style="edgeStyle=orthogonalEdgeStyle;rounded=0;orthogonalLoop=1;jettySize=auto;html=1;" edge="1" parent="1" source="4U6we0sHs__-msw2Mute-218" target="4U6we0sHs__-msw2Mute-215">
          <mxGeometry relative="1" as="geometry" />
        </mxCell>
        <mxCell id="4U6we0sHs__-msw2Mute-218" value="newArray[] = array[length - 1]" style="rounded=0;whiteSpace=wrap;html=1;movable=1;resizable=1;rotatable=1;deletable=1;editable=1;locked=0;connectable=1;" vertex="1" parent="1">
          <mxGeometry x="1157" y="880" width="160" height="30" as="geometry" />
        </mxCell>
        <mxCell id="4U6we0sHs__-msw2Mute-221" style="edgeStyle=orthogonalEdgeStyle;rounded=0;orthogonalLoop=1;jettySize=auto;html=1;entryX=0.5;entryY=0;entryDx=0;entryDy=0;" edge="1" parent="1" source="4U6we0sHs__-msw2Mute-216" target="4U6we0sHs__-msw2Mute-218">
          <mxGeometry relative="1" as="geometry" />
        </mxCell>
        <mxCell id="4U6we0sHs__-msw2Mute-219" value="Ввод:&lt;br&gt;newArray[0]" style="rounded=0;whiteSpace=wrap;html=1;movable=1;resizable=1;rotatable=1;deletable=1;editable=1;locked=0;connectable=1;" vertex="1" parent="1">
          <mxGeometry x="1342.5" y="834" width="90" height="40" as="geometry" />
        </mxCell>
        <mxCell id="4U6we0sHs__-msw2Mute-225" value="" style="edgeStyle=orthogonalEdgeStyle;rounded=0;orthogonalLoop=1;jettySize=auto;html=1;" edge="1" parent="1" source="4U6we0sHs__-msw2Mute-206" target="4U6we0sHs__-msw2Mute-219">
          <mxGeometry relative="1" as="geometry" />
        </mxCell>
        <mxCell id="4U6we0sHs__-msw2Mute-226" value="да" style="text;html=1;align=center;verticalAlign=middle;resizable=0;points=[];autosize=1;strokeColor=none;fillColor=none;" vertex="1" parent="1">
          <mxGeometry x="1241" y="715" width="40" height="30" as="geometry" />
        </mxCell>
        <mxCell id="4U6we0sHs__-msw2Mute-227" value="нет" style="text;html=1;align=center;verticalAlign=middle;resizable=0;points=[];autosize=1;strokeColor=none;fillColor=none;" vertex="1" parent="1">
          <mxGeometry x="1387.5" y="797" width="40" height="30" as="geometry" />
        </mxCell>
        <mxCell id="4U6we0sHs__-msw2Mute-229" value="да" style="text;html=1;align=center;verticalAlign=middle;resizable=0;points=[];autosize=1;strokeColor=none;fillColor=none;" vertex="1" parent="1">
          <mxGeometry x="1502" y="715" width="40" height="30" as="geometry" />
        </mxCell>
        <mxCell id="4U6we0sHs__-msw2Mute-231" value="tempArray[] = ReleaseArray4(array[], length - 1)" style="rounded=0;whiteSpace=wrap;html=1;movable=1;resizable=1;rotatable=1;deletable=1;editable=1;locked=0;connectable=1;" vertex="1" parent="1">
          <mxGeometry x="1497" y="934" width="190" height="40" as="geometry" />
        </mxCell>
        <mxCell id="4U6we0sHs__-msw2Mute-232" value="" style="edgeStyle=orthogonalEdgeStyle;rounded=0;orthogonalLoop=1;jettySize=auto;html=1;" edge="1" parent="1" source="4U6we0sHs__-msw2Mute-208" target="4U6we0sHs__-msw2Mute-231">
          <mxGeometry relative="1" as="geometry" />
        </mxCell>
        <mxCell id="4U6we0sHs__-msw2Mute-233" value="нет" style="text;html=1;align=center;verticalAlign=middle;resizable=0;points=[];autosize=1;strokeColor=none;fillColor=none;" vertex="1" parent="1">
          <mxGeometry x="1591" y="788" width="40" height="30" as="geometry" />
        </mxCell>
        <mxCell id="4U6we0sHs__-msw2Mute-236" value="array[i].Length &lt;br&gt;&amp;lt;= &lt;br&gt;MAX_SIZE_STRING" style="rhombus;whiteSpace=wrap;html=1;" vertex="1" parent="1">
          <mxGeometry x="1495" y="1020" width="195" height="100" as="geometry" />
        </mxCell>
        <mxCell id="4U6we0sHs__-msw2Mute-247" value="" style="edgeStyle=orthogonalEdgeStyle;rounded=0;orthogonalLoop=1;jettySize=auto;html=1;" edge="1" parent="1" source="4U6we0sHs__-msw2Mute-231" target="4U6we0sHs__-msw2Mute-236">
          <mxGeometry relative="1" as="geometry" />
        </mxCell>
        <mxCell id="4U6we0sHs__-msw2Mute-237" value="Возврат:&amp;nbsp;&lt;br&gt;tempArray[]&amp;nbsp;" style="shape=document;whiteSpace=wrap;html=1;boundedLbl=1;" vertex="1" parent="1">
          <mxGeometry x="1532" y="1310" width="120" height="51" as="geometry" />
        </mxCell>
        <mxCell id="4U6we0sHs__-msw2Mute-253" value="" style="edgeStyle=orthogonalEdgeStyle;rounded=0;orthogonalLoop=1;jettySize=auto;html=1;" edge="1" parent="1" source="4U6we0sHs__-msw2Mute-236" target="4U6we0sHs__-msw2Mute-237">
          <mxGeometry relative="1" as="geometry" />
        </mxCell>
        <mxCell id="4U6we0sHs__-msw2Mute-245" value="да" style="text;html=1;align=center;verticalAlign=middle;resizable=0;points=[];autosize=1;strokeColor=none;fillColor=none;" vertex="1" parent="1">
          <mxGeometry x="1446" y="1040" width="40" height="30" as="geometry" />
        </mxCell>
        <mxCell id="4U6we0sHs__-msw2Mute-246" value="нет" style="text;html=1;align=center;verticalAlign=middle;resizable=0;points=[];autosize=1;strokeColor=none;fillColor=none;" vertex="1" parent="1">
          <mxGeometry x="1597.5" y="1111" width="40" height="30" as="geometry" />
        </mxCell>
        <mxCell id="4U6we0sHs__-msw2Mute-248" value="Ввод:&lt;br&gt;outputArray[tempArray.Length + 1]" style="rounded=0;whiteSpace=wrap;html=1;movable=1;resizable=1;rotatable=1;deletable=1;editable=1;locked=0;connectable=1;" vertex="1" parent="1">
          <mxGeometry x="1242.5" y="1050" width="190" height="40" as="geometry" />
        </mxCell>
        <mxCell id="4U6we0sHs__-msw2Mute-254" style="edgeStyle=orthogonalEdgeStyle;rounded=0;orthogonalLoop=1;jettySize=auto;html=1;entryX=1;entryY=0.5;entryDx=0;entryDy=0;" edge="1" parent="1" source="4U6we0sHs__-msw2Mute-236" target="4U6we0sHs__-msw2Mute-248">
          <mxGeometry relative="1" as="geometry" />
        </mxCell>
        <mxCell id="4U6we0sHs__-msw2Mute-356" style="edgeStyle=orthogonalEdgeStyle;rounded=0;orthogonalLoop=1;jettySize=auto;html=1;entryX=0.5;entryY=0;entryDx=0;entryDy=0;" edge="1" parent="1" source="4U6we0sHs__-msw2Mute-249" target="4U6we0sHs__-msw2Mute-301">
          <mxGeometry relative="1" as="geometry" />
        </mxCell>
        <mxCell id="4U6we0sHs__-msw2Mute-249" value="Возврат:&lt;br&gt;newArray[]" style="shape=document;whiteSpace=wrap;html=1;boundedLbl=1;" vertex="1" parent="1">
          <mxGeometry x="1327.5" y="934" width="120" height="56" as="geometry" />
        </mxCell>
        <mxCell id="4U6we0sHs__-msw2Mute-252" value="" style="edgeStyle=orthogonalEdgeStyle;rounded=0;orthogonalLoop=1;jettySize=auto;html=1;" edge="1" parent="1" source="4U6we0sHs__-msw2Mute-219" target="4U6we0sHs__-msw2Mute-249">
          <mxGeometry relative="1" as="geometry" />
        </mxCell>
        <mxCell id="4U6we0sHs__-msw2Mute-255" value="i = 0; i &amp;lt; tempArray.Length; i++" style="shape=hexagon;perimeter=hexagonPerimeter2;whiteSpace=wrap;html=1;fixedSize=1;" vertex="1" parent="1">
          <mxGeometry x="1243.535" y="1120" width="187.93" height="30" as="geometry" />
        </mxCell>
        <mxCell id="4U6we0sHs__-msw2Mute-263" style="edgeStyle=orthogonalEdgeStyle;rounded=0;orthogonalLoop=1;jettySize=auto;html=1;entryX=0.5;entryY=0;entryDx=0;entryDy=0;" edge="1" parent="1" source="4U6we0sHs__-msw2Mute-248" target="4U6we0sHs__-msw2Mute-255">
          <mxGeometry relative="1" as="geometry" />
        </mxCell>
        <mxCell id="4U6we0sHs__-msw2Mute-268" style="edgeStyle=orthogonalEdgeStyle;rounded=0;orthogonalLoop=1;jettySize=auto;html=1;entryX=0.338;entryY=1.067;entryDx=0;entryDy=0;entryPerimeter=0;" edge="1" parent="1" source="4U6we0sHs__-msw2Mute-258" target="4U6we0sHs__-msw2Mute-255">
          <mxGeometry relative="1" as="geometry">
            <Array as="points">
              <mxPoint x="1307" y="1194" />
            </Array>
          </mxGeometry>
        </mxCell>
        <mxCell id="4U6we0sHs__-msw2Mute-258" value="outputArray[i] = tempArray[i]&amp;nbsp;" style="rounded=0;whiteSpace=wrap;html=1;movable=1;resizable=1;rotatable=1;deletable=1;editable=1;locked=0;connectable=1;" vertex="1" parent="1">
          <mxGeometry x="1119" y="1174" width="157" height="40" as="geometry" />
        </mxCell>
        <mxCell id="4U6we0sHs__-msw2Mute-267" style="edgeStyle=orthogonalEdgeStyle;rounded=0;orthogonalLoop=1;jettySize=auto;html=1;entryX=0.5;entryY=0;entryDx=0;entryDy=0;" edge="1" parent="1" source="4U6we0sHs__-msw2Mute-255" target="4U6we0sHs__-msw2Mute-258">
          <mxGeometry relative="1" as="geometry">
            <Array as="points">
              <mxPoint x="1197" y="1135" />
              <mxPoint x="1197" y="1174" />
            </Array>
          </mxGeometry>
        </mxCell>
        <mxCell id="4U6we0sHs__-msw2Mute-259" value="outputArray[tempArray.Length] = array[length - 1]" style="rounded=0;whiteSpace=wrap;html=1;movable=1;resizable=1;rotatable=1;deletable=1;editable=1;locked=0;connectable=1;" vertex="1" parent="1">
          <mxGeometry x="1212" y="1230" width="285" height="39" as="geometry" />
        </mxCell>
        <mxCell id="4U6we0sHs__-msw2Mute-260" value="" style="edgeStyle=orthogonalEdgeStyle;rounded=0;orthogonalLoop=1;jettySize=auto;html=1;" edge="1" parent="1" source="4U6we0sHs__-msw2Mute-255" target="4U6we0sHs__-msw2Mute-259">
          <mxGeometry relative="1" as="geometry">
            <Array as="points">
              <mxPoint x="1347" y="1250" />
              <mxPoint x="1347" y="1250" />
            </Array>
          </mxGeometry>
        </mxCell>
        <mxCell id="4U6we0sHs__-msw2Mute-265" value="нет" style="text;html=1;align=center;verticalAlign=middle;resizable=0;points=[];autosize=1;strokeColor=none;fillColor=none;" vertex="1" parent="1">
          <mxGeometry x="1347.5" y="1160" width="40" height="30" as="geometry" />
        </mxCell>
        <mxCell id="4U6we0sHs__-msw2Mute-269" value="да" style="text;html=1;align=center;verticalAlign=middle;resizable=0;points=[];autosize=1;strokeColor=none;fillColor=none;" vertex="1" parent="1">
          <mxGeometry x="1201" y="1105" width="40" height="30" as="geometry" />
        </mxCell>
        <mxCell id="4U6we0sHs__-msw2Mute-270" value="Возврат:&amp;nbsp;&lt;br&gt;outputArray[]&amp;nbsp;" style="shape=document;whiteSpace=wrap;html=1;boundedLbl=1;" vertex="1" parent="1">
          <mxGeometry x="1294.5" y="1310" width="120" height="51" as="geometry" />
        </mxCell>
        <mxCell id="4U6we0sHs__-msw2Mute-271" value="" style="edgeStyle=orthogonalEdgeStyle;rounded=0;orthogonalLoop=1;jettySize=auto;html=1;" edge="1" parent="1" source="4U6we0sHs__-msw2Mute-259" target="4U6we0sHs__-msw2Mute-270">
          <mxGeometry relative="1" as="geometry" />
        </mxCell>
        <mxCell id="4U6we0sHs__-msw2Mute-298" value="Конец" style="ellipse;whiteSpace=wrap;html=1;" vertex="1" parent="1">
          <mxGeometry x="1202" y="1010" width="70" height="30" as="geometry" />
        </mxCell>
        <mxCell id="4U6we0sHs__-msw2Mute-301" value="Конец" style="ellipse;whiteSpace=wrap;html=1;" vertex="1" parent="1">
          <mxGeometry x="1352.5" y="1011" width="70" height="30" as="geometry" />
        </mxCell>
        <mxCell id="4U6we0sHs__-msw2Mute-303" value="Конец" style="ellipse;whiteSpace=wrap;html=1;" vertex="1" parent="1">
          <mxGeometry x="1319.5" y="1380" width="70" height="30" as="geometry" />
        </mxCell>
        <mxCell id="4U6we0sHs__-msw2Mute-305" value="Конец" style="ellipse;whiteSpace=wrap;html=1;" vertex="1" parent="1">
          <mxGeometry x="1557" y="1380" width="70" height="30" as="geometry" />
        </mxCell>
        <mxCell id="4U6we0sHs__-msw2Mute-304" value="" style="edgeStyle=orthogonalEdgeStyle;rounded=0;orthogonalLoop=1;jettySize=auto;html=1;" edge="1" parent="1" source="4U6we0sHs__-msw2Mute-270" target="4U6we0sHs__-msw2Mute-303">
          <mxGeometry relative="1" as="geometry" />
        </mxCell>
        <mxCell id="4U6we0sHs__-msw2Mute-306" value="" style="edgeStyle=orthogonalEdgeStyle;rounded=0;orthogonalLoop=1;jettySize=auto;html=1;" edge="1" parent="1" source="4U6we0sHs__-msw2Mute-237" target="4U6we0sHs__-msw2Mute-305">
          <mxGeometry relative="1" as="geometry" />
        </mxCell>
      </root>
    </mxGraphModel>
  </diagram>
</mxfile>
